# xmcd
#
# Track frame offsets: 
#        150
#        23392
#        37755
#        71920
#        84383
#        99975
#        110115
#        136084
#        164188
#        177025
#        196536
#        203277
#
# Disc length: 3094 seconds
#
# Revision: 0
# Processed by: cddbd v1.5.2PL0 Copyright (c) Steve Scherf et al.
# Submitted via: ExactAudioCopy v0.95b4
#
DISCID=8c0c140c
DTITLE=John Hood - Oceans
DYEAR=1900
DGENRE=Blues
TTITLE0=Oceans (for Bola)
TTITLE1=Blues
TTITLE2=Madagascar Day
TTITLE3=Soul Ballad
TTITLE4=Praise
TTITLE5=Listen
TTITLE6=Dance
TTITLE7=Guitaro Desafinado
TTITLE8=Troubled Waters
TTITLE9=Mahalia
TTITLE10=You Know Me When
TTITLE11=Faith
EXTD=
EXTT0=
EXTT1=
EXTT2=
EXTT3=
EXTT4=
EXTT5=
EXTT6=
EXTT7=
EXTT8=
EXTT9=
EXTT10=
EXTT11=
PLAYORDER=
